<svg width="24" height="23" viewBox="0 0 24 23" fill="none" xmlns="http://www.w3.org/2000/svg">
<path d="M16.5 12.5V14H10.5V6.5H12V12.5H16.5ZM19.3125 0.5C19.9609 0.5 20.5703 0.621094 21.1406 0.863281C21.7109 1.10547 22.207 1.44141 22.6289 1.87109C23.0508 2.30078 23.3828 2.79688 23.625 3.35938C23.8672 3.92188 23.9922 4.53125 24 5.1875C24 5.57812 23.9531 5.95703 23.8594 6.32422C23.7656 6.69141 23.6289 7.04688 23.4492 7.39062C23.2695 7.73438 23.0508 8.04688 22.793 8.32812C22.5352 8.60938 22.2461 8.85938 21.9258 9.07812C22.1211 9.63281 22.2656 10.1953 22.3594 10.7656C22.4531 11.3359 22.5 11.9141 22.5 12.5C22.5 13.7656 22.2812 14.9883 21.8438 16.168C21.4062 17.3477 20.7695 18.418 19.9336 19.3789L22.2773 21.7227L21.2227 22.7773L18.8789 20.4336C17.9258 21.2617 16.8594 21.8945 15.6797 22.332C14.5 22.7695 13.2734 22.9922 12 23C10.7344 23 9.51172 22.7812 8.33203 22.3438C7.15234 21.9062 6.08203 21.2695 5.12109 20.4336L2.77734 22.7773L1.72266 21.7227L4.06641 19.3789C3.23828 18.4258 2.60547 17.3594 2.16797 16.1797C1.73047 15 1.50781 13.7734 1.5 12.5C1.5 11.9141 1.54688 11.3359 1.64062 10.7656C1.73438 10.1953 1.87891 9.63281 2.07422 9.07812C1.75391 8.86719 1.46484 8.61719 1.20703 8.32812C0.949219 8.03906 0.730469 7.72656 0.550781 7.39062C0.371094 7.05469 0.234375 6.70312 0.140625 6.33594C0.046875 5.96875 0 5.58594 0 5.1875C0 4.53906 0.121094 3.92969 0.363281 3.35938C0.605469 2.78906 0.941406 2.29297 1.37109 1.87109C1.80078 1.44922 2.29688 1.11719 2.85938 0.875C3.42188 0.632812 4.03125 0.507812 4.6875 0.5C5.07031 0.5 5.44922 0.546875 5.82422 0.640625C6.19922 0.734375 6.55469 0.871094 6.89062 1.05078C7.22656 1.23047 7.53906 1.44922 7.82812 1.70703C8.11719 1.96484 8.36719 2.25391 8.57812 2.57422C9.13281 2.37891 9.69531 2.23438 10.2656 2.14062C10.8359 2.04688 11.4141 2 12 2C12.5859 2 13.1641 2.04688 13.7344 2.14062C14.3047 2.23438 14.8672 2.37891 15.4219 2.57422C15.6328 2.25391 15.8828 1.96484 16.1719 1.70703C16.4609 1.44922 16.7734 1.23047 17.1094 1.05078C17.4453 0.871094 17.7969 0.734375 18.1641 0.640625C18.5312 0.546875 18.9141 0.5 19.3125 0.5ZM4.6875 2C4.25 2 3.83984 2.08203 3.45703 2.24609C3.07422 2.41016 2.73438 2.64062 2.4375 2.9375C2.14062 3.23438 1.91406 3.57031 1.75781 3.94531C1.60156 4.32031 1.51562 4.73438 1.5 5.1875C1.5 5.67188 1.60156 6.12891 1.80469 6.55859C2.00781 6.98828 2.30078 7.35547 2.68359 7.66016C3.18359 6.69141 3.8125 5.82812 4.57031 5.07031C5.32812 4.3125 6.19141 3.68359 7.16016 3.18359C6.86328 2.80859 6.5 2.51953 6.07031 2.31641C5.64062 2.11328 5.17969 2.00781 4.6875 2ZM12 21.5C13.2422 21.5 14.4062 21.2656 15.4922 20.7969C16.5781 20.3281 17.5312 19.6836 18.3516 18.8633C19.1719 18.043 19.8164 17.0898 20.2852 16.0039C20.7539 14.918 20.9922 13.75 21 12.5C21 11.2578 20.7656 10.0938 20.2969 9.00781C19.8281 7.92188 19.1836 6.96875 18.3633 6.14844C17.543 5.32812 16.5898 4.68359 15.5039 4.21484C14.418 3.74609 13.25 3.50781 12 3.5C10.7578 3.5 9.59375 3.73438 8.50781 4.20312C7.42188 4.67188 6.46875 5.31641 5.64844 6.13672C4.82812 6.95703 4.18359 7.91016 3.71484 8.99609C3.24609 10.082 3.00781 11.25 3 12.5C3 13.7422 3.23438 14.9062 3.70312 15.9922C4.17188 17.0781 4.81641 18.0312 5.63672 18.8516C6.45703 19.6719 7.41016 20.3164 8.49609 20.7852C9.58203 21.2539 10.75 21.4922 12 21.5ZM21.3164 7.66016C21.6914 7.36328 21.9805 7 22.1836 6.57031C22.3867 6.14062 22.4922 5.67969 22.5 5.1875C22.5 4.75 22.418 4.33984 22.2539 3.95703C22.0898 3.57422 21.8594 3.23438 21.5625 2.9375C21.2656 2.64062 20.9297 2.41406 20.5547 2.25781C20.1797 2.10156 19.7656 2.01562 19.3125 2C18.8281 2 18.3711 2.10156 17.9414 2.30469C17.5117 2.50781 17.1445 2.80078 16.8398 3.18359C17.8086 3.68359 18.6719 4.3125 19.4297 5.07031C20.1875 5.82812 20.8164 6.69141 21.3164 7.66016Z" fill="#FFE1C6"/>
</svg>
