<svg width="16" height="18" viewBox="0 0 16 18" fill="none" xmlns="http://www.w3.org/2000/svg">
<path d="M6.26407 3.61224V3.61224C5.14587 3.61224 4.21198 4.4645 4.10998 5.57804L3.7299 9.72752C3.66908 10.3915 3.26825 10.9764 2.67098 11.2728V11.2728C1.64741 11.7808 1 12.8248 1 13.9675V14.7143H5.60606M6.26407 3.61224V2.64502C6.26407 1.7365 7.00057 1 7.90909 1V1C8.81761 1 9.55411 1.7365 9.55411 2.64502V3.61224M6.26407 3.61224H8.5671H9.55411M9.55411 3.61224V3.61224C10.6723 3.61224 11.6062 4.4645 11.7082 5.57804L12.0883 9.72751C12.1491 10.3915 12.5499 10.9764 13.1472 11.2728V11.2728C14.1708 11.7808 14.8182 12.8248 14.8182 13.9675V14.7143H10.2121M5.60606 14.7143V14.7143C5.60606 15.9767 6.64673 17 7.90909 17V17C9.17145 17 10.2121 15.9767 10.2121 14.7143V14.7143M5.60606 14.7143H10.2121" stroke="#FFE1C6"/>
</svg>
